<svg id="chat_1_" data-name="chat (1)" xmlns="http://www.w3.org/2000/svg" width="39.436" height="28.605" viewBox="0 0 39.436 28.605">
  <path id="Path_6071" data-name="Path 6071" d="M29.917,16.816V31.191a3.352,3.352,0,0,1-3.351,3.351l-11.607.048-3.533-.048-3.266.048H3.351A3.352,3.352,0,0,1,0,31.239V16.865a3.352,3.352,0,0,1,3.351-3.351l23.214-.048A3.352,3.352,0,0,1,29.917,16.816Z" transform="translate(0 -5.986)" fill="#1dc6ac"/>
  <path id="Path_6075" data-name="Path 6075" d="M40.566,2.513,17.352,2.465A3.352,3.352,0,0,0,14,5.816V9.979l17.047-.035A3.352,3.352,0,0,1,34.4,13.3V23.591h6.168a3.352,3.352,0,0,0,3.351-3.351V5.865A3.352,3.352,0,0,0,40.566,2.513Z" transform="translate(-4.481 -2.465)" fill="#ffd179"/>
  <rect id="Rectangle_701" data-name="Rectangle 701" width="7" height="2" rx="1" transform="translate(5 18.999)" fill="#fff"/>
  <rect id="Rectangle_702" data-name="Rectangle 702" width="19" height="2" rx="1" transform="translate(5 22.999)" fill="#fff"/>
</svg>
